<?xml version="1.0" encoding="UTF-8" standalone="no"?> <svg width="64" height="64" viewBox="0 0 64 64" fill="none" xmlns="http://www.w3.org/2000/svg">
<path d="M58 44.83V18C58.0005 17.8201 57.9525 17.6434 57.8609 17.4886C57.7694 17.3337 57.6378 17.2064 57.48 17.12L47.83 11.92H47.74L31.48 3.12001C31.3341 3.04124 31.1708 3 31.005 3C30.8392 3 30.6759 3.04124 30.53 3.12001L4.53 17.12C4.37032 17.205 4.2367 17.3318 4.14337 17.4868C4.05003 17.6417 4.00049 17.8191 4 18V46C3.99951 46.1799 4.04756 46.3566 4.13907 46.5115C4.23059 46.6663 4.36219 46.7937 4.52 46.88L30.52 60.88C30.6659 60.9588 30.8292 61 30.995 61C31.1608 61 31.3241 60.9588 31.47 60.88L39 56.82C39.85 57.93 39.79 60.42 41.48 60.91C43.17 61.4 44.56 59.45 45.85 59.05C47.14 59.45 48.63 61.49 50.22 60.91C51.81 60.33 51.9 58 52.68 56.84C53.98 56.44 56.35 57.19 57.3 55.77C58.25 54.35 56.9 52.41 56.9 51.04C56.97 50.82 57.62 50.37 58 50.1C60.65 48.45 60.67 46.48 58 44.83ZM34.49 42.38C34.6931 42.8519 34.8083 43.3568 34.83 43.87C34.21 44.7 32.52 45.41 32 46.44V32.6L56 19.67V38.34C55.08 38.06 53.47 38.34 52.67 38.07C51.89 36.93 51.88 34.48 50.22 34C48.56 33.52 47.14 35.46 45.85 35.86C45.3569 35.6803 44.9022 35.4088 44.51 35.06C42.13 33.06 40.35 33.74 39.61 36.7C39.4875 37.1886 39.2811 37.6521 39 38.07C38.5117 38.2021 38.0038 38.2461 37.5 38.2C34.48 38 33.34 39.51 34.49 42.38ZM45.31 12.83L22.25 26.15L16.18 22.88L39.25 9.57001L45.31 12.83ZM20.91 27.7V34.61L19.21 30.49C19.1476 30.3378 19.0486 30.2034 18.9218 30.0986C18.7951 29.9939 18.6444 29.922 18.4832 29.8893C18.322 29.8567 18.1552 29.8643 17.9977 29.9115C17.8402 29.9588 17.6967 30.0441 17.58 30.16L15.48 32.24V24.78L20.91 27.7ZM31 5.14001L37.18 8.46001L14.11 21.77L7.1 18L31 5.14001ZM30 58.33L6 45.4V19.67L13.48 23.67V34.64C13.4808 34.8366 13.5395 35.0286 13.6489 35.192C13.7582 35.3553 13.9132 35.4829 14.0946 35.5586C14.276 35.6344 14.4757 35.655 14.6687 35.6179C14.8618 35.5808 15.0396 35.4876 15.18 35.35L17.93 32.63L21 40C21.075 40.1826 21.2024 40.339 21.3661 40.4493C21.5299 40.5596 21.7226 40.619 21.92 40.62H22.12C22.3493 40.5733 22.5549 40.4476 22.7011 40.2649C22.8473 40.0822 22.9247 39.854 22.92 39.62V28.78L30 32.6V58.33ZM31 30.86L24.32 27.26L47.38 13.94L54.91 18L31 30.86ZM32 58.33V48.47C32.52 49.47 34.21 50.21 34.83 51.04C34.8083 51.5532 34.6931 52.0582 34.49 52.53C33.91 53.94 33.69 55.93 35.41 56.53L32 58.33ZM56.84 48.47C53.73 50.47 55.15 51.84 55.7 54.57C54.57 54.94 52.54 54.37 51.5 55.22C50.46 56.07 50.25 58 49.65 59C48.53 58.61 47.21 57 45.86 57C44.51 57 43.17 58.51 42.13 59C41.42 58 41.34 55.93 40.22 55.2C39.1 54.47 37.16 54.87 36.05 54.6C36.05 53.4 37.21 51.66 36.73 50.4C36.4 49.14 34.4 48.4 33.73 47.4C33.79 47.16 34.51 46.65 34.89 46.4C38 44.4 36.59 43.03 36.03 40.3C37.17 39.93 39.19 40.5 40.23 39.65C41.27 38.8 41.49 36.83 42.08 35.87C43.21 36.26 44.53 37.87 45.87 37.87C47.21 37.87 48.56 36.36 49.61 35.87C50.31 36.81 50.39 38.94 51.51 39.66C52.63 40.38 54.57 39.99 55.68 40.26C55.68 41.46 54.52 43.2 55 44.46C55.48 45.72 57.32 46.46 58 47.46C57.92 47.7 57.22 48.2 56.84 48.47Z" fill="black"/>
<path d="M45.9999 44.1C45.9999 43.1559 45.6248 42.2504 44.9572 41.5827C44.2896 40.9151 43.3841 40.54 42.4399 40.54C41.4957 40.54 40.5902 40.9151 39.9226 41.5827C39.255 42.2504 38.8799 43.1559 38.8799 44.1C38.8799 45.0442 39.255 45.9497 39.9226 46.6173C40.5902 47.285 41.4957 47.66 42.4399 47.66C43.3841 47.66 44.2896 47.285 44.9572 46.6173C45.6248 45.9497 45.9999 45.0442 45.9999 44.1V44.1ZM40.8799 44.1C40.8799 43.6863 41.0442 43.2895 41.3368 42.997C41.6294 42.7044 42.0261 42.54 42.4399 42.54C42.8536 42.54 43.2504 42.7044 43.543 42.997C43.8355 43.2895 43.9999 43.6863 43.9999 44.1C43.9685 44.4909 43.7911 44.8556 43.5029 45.1216C43.2148 45.3876 42.837 45.5352 42.4449 45.5352C42.0527 45.5352 41.675 45.3876 41.3868 45.1216C41.0987 44.8556 40.9213 44.4909 40.8899 44.1H40.8799Z" fill="black"/>
<path d="M49.1999 47.29C48.2557 47.29 47.3502 47.6651 46.6826 48.3327C46.015 49.0004 45.6399 49.9059 45.6399 50.85C45.6399 51.7942 46.015 52.6997 46.6826 53.3673C47.3502 54.035 48.2557 54.41 49.1999 54.41C50.1441 54.41 51.0496 54.035 51.7172 53.3673C52.3848 52.6997 52.7599 51.7942 52.7599 50.85C52.7599 49.9059 52.3848 49.0004 51.7172 48.3327C51.0496 47.6651 50.1441 47.29 49.1999 47.29ZM49.1999 52.41C48.7862 52.41 48.3894 52.2457 48.0968 51.9531C47.8042 51.6606 47.6399 51.2638 47.6399 50.85C47.6399 50.4363 47.8042 50.0395 48.0968 49.747C48.3894 49.4544 48.7862 49.29 49.1999 49.29C49.6136 49.29 50.0104 49.4544 50.303 49.747C50.5955 50.0395 50.7599 50.4363 50.7599 50.85C50.7599 51.2638 50.5955 51.6606 50.303 51.9531C50.0104 52.2457 49.6136 52.41 49.1999 52.41Z" fill="black"/>
<path d="M51 42.32C50.907 42.2263 50.7964 42.1519 50.6746 42.1011C50.5527 42.0504 50.422 42.0242 50.29 42.0242C50.158 42.0242 50.0273 42.0504 49.9054 42.1011C49.7836 42.1519 49.673 42.2263 49.58 42.32L40.27 51.64C40.1062 51.8313 40.0206 52.0774 40.0303 52.3291C40.04 52.5808 40.1443 52.8195 40.3224 52.9976C40.5005 53.1757 40.7393 53.28 40.9909 53.2897C41.2426 53.2995 41.4887 53.2139 41.68 53.05L51 43.73C51.1862 43.5427 51.2908 43.2892 51.2908 43.025C51.2908 42.7608 51.1862 42.5074 51 42.32Z" fill="black"/>
</svg>
