<svg xmlns="http://www.w3.org/2000/svg" viewBox="-2.26 60.38 255.02 99.21">
 <g>
  <title>Layer 1</title>
  <g stroke="null" id="svg_1" clip-rule="evenodd" fill-rule="evenodd">
   <path stroke="null" id="svg_2" d="m-1.47058,60.38193l254.2261,0l0,88.63919l-254.2261,0l0,-88.63919z" fill-opacity="0" fill="#fff"/>
   <path stroke="null" id="svg_3" d="m30.2872,73.7135l0,54.03776l-11.89194,0l0,-17.26977l4.64513,-6.68437l-20.9968,0l0,24.14042l8.17583,14.66875l36.41944,0l0,-76.69189l-20.9968,0l4.64513,7.79909l0.00001,0.00001zm21.92682,-7.79909l0,76.69189l16.35167,0l0,-25.43944l11.89194,0l0,25.43944l16.35067,0l0,-61.83586l-7.98943,-14.85603l-36.60484,0l-0.00001,0zm28.24361,37.88272l-11.89194,0l0,-23.02669l11.89194,0l0,23.02669zm17.83791,-37.88272l4.45873,7.79909l0,68.89279l45.33889,0l0,-61.83586l-8.91846,-14.85603l-40.87916,0l0,0.00001zm33.44595,61.83685l-12.63556,0l0,-46.98083l12.63556,0l0,46.98083zm56.11739,-46.98083l0,-14.85603l-38.46489,0l4.64513,7.79909l0,54.03776l8.91846,14.85503l24.9013,0l0,-19.8688l-6.31778,5.01377l-11.15031,0l0,-17.26977l17.46809,0l0,-14.85603l-17.46809,0l0,-14.85503l17.46809,0l0,0.00001zm-183.96023,11.51285l1.00877,0l0,-6.57578l2.5299,0l0,-0.89557l-6.06957,0l0,0.89557l2.5309,0l0,6.57578z"/>
   <path stroke="null" id="svg_4" d="m9.35492,87.95541c0,-0.219 -0.02103,-1.169 -0.02103,-1.859l0.02103,0l2.11322,6.288l1.00453,0l2.11322,-6.298l0.02103,0c0,0.7 -0.02103,1.65 -0.02103,1.869l0,4.429l0.9825,0l0,-7.5l-1.4432,0l-2.13425,6.34l-0.02103,0l-2.14427,-6.34l-1.45422,0l0,7.5l0.9835,0l0,-4.429z"/>
   <rect stroke="null" id="svg_7" height="12.94107" width="20.58807" y="80.76768" x="-2.26112" fill="#ffffff"/>
   <rect fill="white" stroke="null" id="svg_9" height="12.64696" width="31.47033" y="146.94361" x="19.50341"/>
  </g>
  <path fill="#00a36c" opacity="undefined" d="m30.16394,65.76785l16.69219,0l0,77.10255l-16.69219,0l0,-77.10255z" id="svg_5" stroke="null"/>
  <path id="svg_6" d="m24.28749,74.50133l0,-8.71836l6.65147,8.71836l-6.65147,0z" fill="#00a36c" stroke="null" transform="rotate(-180 27.6132 70.1422)"/>
 </g>

</svg>