<svg width="192.756" height="192.756" xmlns="http://www.w3.org/2000/svg">

 <g>
  <title>Layer 1</title>
  <g stroke="null" id="svg_1" clip-rule="evenodd" fill-rule="evenodd">
   <path stroke="null" id="svg_2" d="m-1.47058,60.58775l254.2261,0l0,88.63919l-254.2261,0l0,-88.63919z" fill-opacity="0" fill="#fff"/>
   <path stroke="null" id="svg_3" d="m30.2872,73.91932l0,54.03776l-11.89194,0l0,-17.26977l4.64513,-6.68437l-20.9968,0l0,24.14042l8.17583,14.66875l36.41944,0l0,-76.69189l-20.9968,0l4.64513,7.79909zm21.92682,-7.79909l0,76.69189l16.35167,0l0,-25.43944l11.89194,0l0,25.43944l16.35067,0l0,-61.83586l-7.98943,-14.85603l-36.60484,0zm28.24361,37.88272l-11.89194,0l0,-23.02669l11.89194,0l0,23.02669zm17.83791,-37.88272l4.45873,7.79909l0,68.89279l45.33889,0l0,-61.83586l-8.91846,-14.85603l-40.87916,0zm33.44595,61.83685l-12.63556,0l0,-46.98083l12.63556,0l0,46.98083zm56.11739,-46.98083l0,-14.85603l-38.46489,0l4.64513,7.79909l0,54.03776l8.91846,14.85503l24.9013,0l0,-19.8688l-6.31778,5.01377l-11.15031,0l0,-17.26977l17.46809,0l0,-14.85603l-17.46809,0l0,-14.85503l17.46809,0zm-183.96023,11.51285l1.00877,0l0,-6.57578l2.5299,0l0,-0.89557l-6.06957,0l0,0.89557l2.5309,0l0,6.57578z"/>
   <path stroke="null" id="svg_4" d="m9.35492,88.16123c0,-0.219 -0.02103,-1.169 -0.02103,-1.859l0.02103,0l2.11322,6.288l1.00453,0l2.11322,-6.298l0.02103,0c0,0.7 -0.02103,1.65 -0.02103,1.869l0,4.429l0.9825,0l0,-7.5l-1.4432,0l-2.13425,6.34l-0.02103,0l-2.14427,-6.34l-1.45422,0l0,7.5l0.9835,0l0,-4.429z"/>
   <rect stroke="null" id="svg_7" height="12.94107" width="20.58807" y="80.9735" x="-2.26112" fill="#ffffff"/>
   <rect fill="white" stroke="null" id="svg_9" height="12.64696" width="31.47033" y="147.14943" x="19.50341"/>
  </g>
  <rect stroke="null" id="svg_5" height="77.0582" width="16.47046" y="65.97362" x="30.38567" fill="#00bf00"/>
  <path transform="rotate(180 27.9299 70.237)" stroke="null" id="svg_6" d="m25.2829,74.50163l0,-8.52935l5.29408,8.52935l-5.29408,0z" fill="#00bf00"/>
 </g>
</svg>